<svg width="36" height="26" viewBox="0 0 36 26" fill="none" xmlns="http://www.w3.org/2000/svg">
<path d="M1 20.7993V4.27643C1 3.03909 1.1508 1.59996 2.83304 1.5H33.2852C34.8492 1.62892 35 3.03909 35 4.27643V20.7993M1 20.7993C1 22.8431 2.69137 24.5 4.77778 24.5H31.2222C33.3086 24.5 35 22.8431 35 20.7993M1 20.7993L13.75 12.4728M35 20.7993L22.25 12.4728M1 4.14623L13.75 12.4728M35 4.14623L22.25 12.4728M22.25 12.4728L20.0955 13.8798C18.8266 14.7085 17.1734 14.7085 15.9045 13.8798L13.75 12.4728" stroke="white" stroke-width="2" stroke-linecap="round" stroke-linejoin="round"/>
</svg>
